<mxfile host="app.diagrams.net" modified="2021-07-06T12:27:20.584Z" agent="5.0 (Windows NT 6.1; Win64; x64) AppleWebKit/537.36 (KHTML, like Gecko) Chrome/91.0.4472.106 Safari/537.36" etag="71eQOK1Flh9FSpw6O76H" version="14.8.4" type="github">
  <diagram id="C5RBs43oDa-KdzZeNtuy" name="Page-1">
    <mxGraphModel dx="1128" dy="608" grid="1" gridSize="10" guides="1" tooltips="1" connect="1" arrows="1" fold="1" page="1" pageScale="1" pageWidth="827" pageHeight="1169" math="0" shadow="0">
      <root>
        <mxCell id="WIyWlLk6GJQsqaUBKTNV-0" />
        <mxCell id="WIyWlLk6GJQsqaUBKTNV-1" parent="WIyWlLk6GJQsqaUBKTNV-0" />
        <mxCell id="WIyWlLk6GJQsqaUBKTNV-2" value="" style="rounded=0;html=1;jettySize=auto;orthogonalLoop=1;fontSize=11;endArrow=block;endFill=0;endSize=8;strokeWidth=1;shadow=0;labelBackgroundColor=none;edgeStyle=orthogonalEdgeStyle;" parent="WIyWlLk6GJQsqaUBKTNV-1" source="WIyWlLk6GJQsqaUBKTNV-3" edge="1">
          <mxGeometry relative="1" as="geometry">
            <mxPoint x="255" y="169" as="targetPoint" />
          </mxGeometry>
        </mxCell>
        <mxCell id="WIyWlLk6GJQsqaUBKTNV-3" value="开始" style="rounded=1;whiteSpace=wrap;html=1;fontSize=12;glass=0;strokeWidth=1;shadow=0;" parent="WIyWlLk6GJQsqaUBKTNV-1" vertex="1">
          <mxGeometry x="192" y="79" width="126" height="40" as="geometry" />
        </mxCell>
        <mxCell id="WIyWlLk6GJQsqaUBKTNV-11" value="结束" style="rounded=1;whiteSpace=wrap;html=1;fontSize=12;glass=0;strokeWidth=1;shadow=0;" parent="WIyWlLk6GJQsqaUBKTNV-1" vertex="1">
          <mxGeometry x="195" y="740" width="126" height="40" as="geometry" />
        </mxCell>
        <mxCell id="H8YEQYLIjh_S5AIm5i7--2" value="" style="edgeStyle=orthogonalEdgeStyle;rounded=0;orthogonalLoop=1;jettySize=auto;html=1;" edge="1" parent="WIyWlLk6GJQsqaUBKTNV-1" source="H8YEQYLIjh_S5AIm5i7--0" target="H8YEQYLIjh_S5AIm5i7--1">
          <mxGeometry relative="1" as="geometry" />
        </mxCell>
        <mxCell id="H8YEQYLIjh_S5AIm5i7--0" value="markdown&lt;br&gt;示例代码" style="shape=parallelogram;perimeter=parallelogramPerimeter;whiteSpace=wrap;html=1;fixedSize=1;" vertex="1" parent="WIyWlLk6GJQsqaUBKTNV-1">
          <mxGeometry x="195" y="169" width="126" height="60" as="geometry" />
        </mxCell>
        <mxCell id="H8YEQYLIjh_S5AIm5i7--4" value="" style="edgeStyle=orthogonalEdgeStyle;rounded=0;orthogonalLoop=1;jettySize=auto;html=1;" edge="1" parent="WIyWlLk6GJQsqaUBKTNV-1" source="H8YEQYLIjh_S5AIm5i7--1" target="H8YEQYLIjh_S5AIm5i7--3">
          <mxGeometry relative="1" as="geometry" />
        </mxCell>
        <mxCell id="H8YEQYLIjh_S5AIm5i7--1" value="传入editable-demo-block" style="rounded=0;whiteSpace=wrap;html=1;" vertex="1" parent="WIyWlLk6GJQsqaUBKTNV-1">
          <mxGeometry x="195" y="269" width="126" height="60" as="geometry" />
        </mxCell>
        <mxCell id="H8YEQYLIjh_S5AIm5i7--14" value="" style="edgeStyle=orthogonalEdgeStyle;rounded=0;orthogonalLoop=1;jettySize=auto;html=1;" edge="1" parent="WIyWlLk6GJQsqaUBKTNV-1" source="H8YEQYLIjh_S5AIm5i7--3" target="H8YEQYLIjh_S5AIm5i7--10">
          <mxGeometry relative="1" as="geometry" />
        </mxCell>
        <mxCell id="H8YEQYLIjh_S5AIm5i7--3" value="将代码解析成vue动态组件的配置" style="rounded=0;whiteSpace=wrap;html=1;" vertex="1" parent="WIyWlLk6GJQsqaUBKTNV-1">
          <mxGeometry x="195" y="490" width="126" height="60" as="geometry" />
        </mxCell>
        <mxCell id="H8YEQYLIjh_S5AIm5i7--12" value="" style="edgeStyle=orthogonalEdgeStyle;rounded=0;orthogonalLoop=1;jettySize=auto;html=1;" edge="1" parent="WIyWlLk6GJQsqaUBKTNV-1" source="H8YEQYLIjh_S5AIm5i7--5" target="H8YEQYLIjh_S5AIm5i7--11">
          <mxGeometry relative="1" as="geometry" />
        </mxCell>
        <mxCell id="H8YEQYLIjh_S5AIm5i7--5" value="将代码串复制给code变量传给vue-codemirror-lite用于展示" style="rounded=0;whiteSpace=wrap;html=1;" vertex="1" parent="WIyWlLk6GJQsqaUBKTNV-1">
          <mxGeometry x="430" y="369" width="126" height="60" as="geometry" />
        </mxCell>
        <mxCell id="H8YEQYLIjh_S5AIm5i7--9" value="" style="edgeStyle=orthogonalEdgeStyle;rounded=0;orthogonalLoop=1;jettySize=auto;html=1;entryX=0.5;entryY=0;entryDx=0;entryDy=0;exitX=0.5;exitY=1;exitDx=0;exitDy=0;" edge="1" parent="WIyWlLk6GJQsqaUBKTNV-1" source="H8YEQYLIjh_S5AIm5i7--1" target="H8YEQYLIjh_S5AIm5i7--5">
          <mxGeometry relative="1" as="geometry">
            <mxPoint x="555" y="339" as="sourcePoint" />
            <mxPoint x="445" y="379" as="targetPoint" />
          </mxGeometry>
        </mxCell>
        <mxCell id="H8YEQYLIjh_S5AIm5i7--15" value="" style="edgeStyle=orthogonalEdgeStyle;rounded=0;orthogonalLoop=1;jettySize=auto;html=1;" edge="1" parent="WIyWlLk6GJQsqaUBKTNV-1" source="H8YEQYLIjh_S5AIm5i7--10" target="WIyWlLk6GJQsqaUBKTNV-11">
          <mxGeometry relative="1" as="geometry" />
        </mxCell>
        <mxCell id="H8YEQYLIjh_S5AIm5i7--10" value="基于新的配置将示例渲染出来" style="rounded=0;whiteSpace=wrap;html=1;" vertex="1" parent="WIyWlLk6GJQsqaUBKTNV-1">
          <mxGeometry x="198" y="610" width="120" height="60" as="geometry" />
        </mxCell>
        <mxCell id="H8YEQYLIjh_S5AIm5i7--13" value="" style="edgeStyle=orthogonalEdgeStyle;rounded=0;orthogonalLoop=1;jettySize=auto;html=1;" edge="1" parent="WIyWlLk6GJQsqaUBKTNV-1" source="H8YEQYLIjh_S5AIm5i7--11" target="H8YEQYLIjh_S5AIm5i7--3">
          <mxGeometry relative="1" as="geometry" />
        </mxCell>
        <mxCell id="H8YEQYLIjh_S5AIm5i7--11" value="用户编辑示例代码，并点击运行触发重新渲染" style="rounded=0;whiteSpace=wrap;html=1;" vertex="1" parent="WIyWlLk6GJQsqaUBKTNV-1">
          <mxGeometry x="433" y="490" width="120" height="60" as="geometry" />
        </mxCell>
      </root>
    </mxGraphModel>
  </diagram>
</mxfile>
